<?xml version="1.0" encoding="utf-8"?>
<!-- Generator: Adobe Illustrator 19.2.1, SVG Export Plug-In . SVG Version: 6.00 Build 0)  -->
<svg version="1.1" id="Capa_1" xmlns="http://www.w3.org/2000/svg" xmlns:xlink="http://www.w3.org/1999/xlink" x="0px" y="0px"
	 viewBox="0 0 500 560" style="enable-background:new 0 0 500 560;" xml:space="preserve">
<style type="text/css">
	.st0{fill:#1D1D1B;}
	.st1{font-family:'MyriadPro-Bold';}
	.st2{font-size:124.8826px;}
</style>
<path class="st0" d="M338,204.5c94.9-57.3,83-171,83-171h-71.2c-2,83-56.3,100.8-56.3,100.8V33.4h-74.1v100.8
	C167,104.6,163,33.4,163,33.4H89.9c4,131.5,90,172,90,172h-90V243v37.6h90c0,0-86,40.5-90,172H163c0,0,4-71.2,56.3-100.8v100.8h74.1
	V351.8c0,0,54.4,17.8,56.3,100.8H421c0,0,11.9-113.7-83-171h83.5V243v-38.6H338z"/>
<text transform="matrix(1.1247 0 0 1 123.4844 545.6504)" class="st0 st1 st2">UTN</text>
</svg>
